<?xml version="1.0" encoding="utf-8"?>
<!-- Generator: Adobe Illustrator 28.1.0, SVG Export Plug-In . SVG Version: 6.00 Build 0)  -->
<svg version="1.1" id="Small" xmlns="http://www.w3.org/2000/svg" xmlns:xlink="http://www.w3.org/1999/xlink" x="0px" y="0px"
	 viewBox="0 0 32 32" style="enable-background:new 0 0 32 32;" xml:space="preserve">
<style type="text/css">
	.st0{fill:none;stroke:#FEFEFE;stroke-width:3;}
	.st1{fill:#0046FE;}
</style>
<path class="st0" d="M16,1.5L16,1.5C24,1.5,30.5,8,30.5,16l0,0c0,8-6.5,14.5-14.5,14.5l0,0C8,30.5,1.5,24,1.5,16l0,0
	C1.5,8,8,1.5,16,1.5z"/>
<path class="st1" d="M32,16c0,4.2-1.7,8.3-4.7,11.3S20.2,32,16,32v-3c3.4,0,6.8-1.4,9.2-3.8S29,19.4,29,16H32z"/>
</svg>
